<?xml version="1.0" standalone="no"?>
<!DOCTYPE svg PUBLIC "-//W3C//DTD SVG 20010904//EN"
 "http://www.w3.org/TR/2001/REC-SVG-20010904/DTD/svg10.dtd">
<svg version="1.0" xmlns="http://www.w3.org/2000/svg"
 width="195.000000pt" height="195.000000pt" viewBox="0 0 195.000000 195.000000"
 preserveAspectRatio="xMidYMid meet">
<metadata>
Created by potrace 1.14, written by Peter Selinger 2001-2017
</metadata>
<g transform="translate(0.000000,195.000000) scale(0.100000,-0.100000)"
fill="#000000" stroke="none">
<path d="M765 1330 c-203 -203 -261 -256 -266 -242 -3 9 -4 22 -2 29 8 19 -25
8 -54 -19 -16 -14 -43 -34 -61 -44 -17 -10 -32 -22 -32 -26 0 -17 31 -20 55
-4 13 9 29 16 35 16 17 0 11 -26 -10 -45 l-20 -18 20 -22 c16 -17 20 -35 20
-94 0 -69 1 -72 23 -69 22 3 23 7 26 67 l1 25 31 -30 c17 -16 35 -39 40 -52 5
-13 13 -21 17 -18 5 3 105 -92 223 -210 l214 -214 270 270 271 271 29 -40 c21
-27 46 -46 80 -59 l50 -19 1 -49 c2 -72 2 -74 24 -74 21 0 22 2 22 83 1 32 5
47 14 48 61 6 115 47 142 109 19 44 25 207 7 214 -25 9 -34 -12 -36 -89 -3
-111 -27 -156 -96 -180 -70 -24 -148 3 -179 61 -17 30 -17 34 -2 51 15 17 15
20 -2 41 -12 14 -19 38 -18 63 0 47 -15 70 -34 51 -7 -7 -13 -17 -13 -22 0
-21 -20 -14 -23 8 -2 13 -10 22 -20 22 -9 0 -123 106 -252 235 l-235 235 -260
-260z m659 -212 c-3 -4 -10 -8 -16 -8 -23 0 -79 -53 -94 -88 -13 -33 -18 -98
-15 -200 1 -29 4 -33 23 -30 22 3 23 8 24 99 0 104 11 134 58 164 44 29 65 27
107 -13 73 -68 81 -55 -219 -354 l-267 -268 -206 206 -206 206 2 78 c2 87 17
120 63 144 24 12 42 13 104 8 9 -1 29 -18 44 -38 25 -33 28 -43 29 -132 0 -86
3 -97 19 -100 10 -2 22 1 26 8 13 21 2 183 -16 220 -59 128 -250 122 -305 -10
-6 -14 -10 -49 -10 -79 l0 -54 -38 37 c-30 29 -37 43 -33 64 3 19 83 106 266
289 l261 263 202 -202 c111 -111 200 -205 197 -210z"/>
<path d="M1020 1099 c-117 -67 -114 -235 4 -296 44 -23 117 -20 160 6 28 18
36 19 36 8 0 -25 25 -40 39 -23 20 24 12 183 -11 234 -38 82 -149 117 -228 71z
m148 -47 c52 -34 66 -104 32 -160 -63 -104 -233 -47 -217 72 13 96 105 140
185 88z"/>
<path d="M15 1217 c-10 -39 -12 -281 -3 -313 38 -140 234 -163 306 -36 47 85
14 190 -74 232 -51 25 -100 24 -155 -4 -18 -9 -33 -16 -33 -16 -1 0 1 23 2 50
5 62 -3 96 -23 104 -10 3 -17 -2 -20 -17z m234 -177 c98 -90 -1 -247 -124
-196 -117 49 -80 223 48 223 36 0 52 -6 76 -27z"/>
<path d="M465 1214 c-15 -15 -15 -19 -1 -32 17 -17 46 -10 46 11 0 8 -6 20
-14 26 -11 9 -18 8 -31 -5z"/>
</g>
</svg>
